<mxfile host="app.diagrams.net" modified="2021-10-18T15:22:14.936Z" agent="5.0 (Windows NT 6.1; Win64; x64) AppleWebKit/537.36 (KHTML, like Gecko) Chrome/94.0.4606.81 Safari/537.36" etag="PO4qirZ4JFRqPhVmCfFB" version="15.5.5" type="github">
  <diagram id="C5RBs43oDa-KdzZeNtuy" name="Page-1">
    <mxGraphModel dx="782" dy="776" grid="1" gridSize="10" guides="1" tooltips="1" connect="1" arrows="1" fold="1" page="1" pageScale="1" pageWidth="827" pageHeight="1169" math="0" shadow="0">
      <root>
        <mxCell id="WIyWlLk6GJQsqaUBKTNV-0" />
        <mxCell id="WIyWlLk6GJQsqaUBKTNV-1" parent="WIyWlLk6GJQsqaUBKTNV-0" />
        <mxCell id="ndGYL8X3ibIkgSbwgu3z-4" value="" style="rounded=0;orthogonalLoop=1;jettySize=auto;html=1;endArrow=none;endFill=0;exitX=0.5;exitY=0.5;exitDx=0;exitDy=0;exitPerimeter=0;" edge="1" parent="WIyWlLk6GJQsqaUBKTNV-1" source="ndGYL8X3ibIkgSbwgu3z-0" target="ndGYL8X3ibIkgSbwgu3z-3">
          <mxGeometry relative="1" as="geometry" />
        </mxCell>
        <mxCell id="ndGYL8X3ibIkgSbwgu3z-6" value="include" style="edgeStyle=orthogonalEdgeStyle;rounded=0;orthogonalLoop=1;jettySize=auto;html=1;dashed=1;exitX=0;exitY=0.717;exitDx=0;exitDy=0;exitPerimeter=0;verticalAlign=bottom;" edge="1" parent="WIyWlLk6GJQsqaUBKTNV-1" source="ndGYL8X3ibIkgSbwgu3z-5">
          <mxGeometry relative="1" as="geometry">
            <mxPoint x="290" y="260" as="targetPoint" />
            <Array as="points">
              <mxPoint x="430" y="260" />
            </Array>
          </mxGeometry>
        </mxCell>
        <mxCell id="ndGYL8X3ibIkgSbwgu3z-8" value="include" style="edgeStyle=orthogonalEdgeStyle;rounded=0;orthogonalLoop=1;jettySize=auto;html=1;dashed=1;entryX=0.75;entryY=1;entryDx=0;entryDy=0;verticalAlign=bottom;" edge="1" parent="WIyWlLk6GJQsqaUBKTNV-1" target="ndGYL8X3ibIkgSbwgu3z-3">
          <mxGeometry relative="1" as="geometry">
            <mxPoint x="428" y="350" as="sourcePoint" />
            <Array as="points">
              <mxPoint x="253" y="350" />
            </Array>
          </mxGeometry>
        </mxCell>
        <mxCell id="ndGYL8X3ibIkgSbwgu3z-10" value="include" style="edgeStyle=orthogonalEdgeStyle;rounded=0;orthogonalLoop=1;jettySize=auto;html=1;dashed=1;exitX=0;exitY=0.5;exitDx=0;exitDy=0;entryX=0.75;entryY=0;entryDx=0;entryDy=0;verticalAlign=bottom;" edge="1" parent="WIyWlLk6GJQsqaUBKTNV-1" source="ndGYL8X3ibIkgSbwgu3z-9" target="ndGYL8X3ibIkgSbwgu3z-3">
          <mxGeometry relative="1" as="geometry">
            <mxPoint x="265" y="200" as="sourcePoint" />
            <mxPoint x="370" y="210" as="targetPoint" />
            <Array as="points" />
          </mxGeometry>
        </mxCell>
        <mxCell id="ndGYL8X3ibIkgSbwgu3z-0" value="Actor" style="shape=umlActor;verticalLabelPosition=bottom;verticalAlign=top;html=1;" vertex="1" parent="WIyWlLk6GJQsqaUBKTNV-1">
          <mxGeometry x="40" y="180" width="60" height="140" as="geometry" />
        </mxCell>
        <mxCell id="ndGYL8X3ibIkgSbwgu3z-3" value="&lt;font style=&quot;vertical-align: inherit&quot;&gt;&lt;font style=&quot;vertical-align: inherit&quot;&gt;КОПИРОВАНИЕ УКАЗАННОГО КОЛИЧЕСТВА&amp;nbsp; МУЗЫКАЛЬНЫХ ФАЙЛОВ В&amp;nbsp; УКАЗАННУЮ ПАПКУ&amp;nbsp; (расширение&amp;nbsp; MP3)&lt;/font&gt;&lt;/font&gt;" style="whiteSpace=wrap;html=1;verticalAlign=top;" vertex="1" parent="WIyWlLk6GJQsqaUBKTNV-1">
          <mxGeometry x="140" y="180" width="150" height="140" as="geometry" />
        </mxCell>
        <mxCell id="ndGYL8X3ibIkgSbwgu3z-5" value="КОПИРОВАТЬ ФАЙЛЫ ПО ПОРЯДКУ" style="ellipse;whiteSpace=wrap;html=1;verticalAlign=top;" vertex="1" parent="WIyWlLk6GJQsqaUBKTNV-1">
          <mxGeometry x="430" y="220" width="120" height="60" as="geometry" />
        </mxCell>
        <mxCell id="ndGYL8X3ibIkgSbwgu3z-7" value="ЗАПОЛНИТЬ ПОЛНОСТЬЮ" style="ellipse;whiteSpace=wrap;html=1;verticalAlign=top;" vertex="1" parent="WIyWlLk6GJQsqaUBKTNV-1">
          <mxGeometry x="430" y="320" width="120" height="60" as="geometry" />
        </mxCell>
        <mxCell id="ndGYL8X3ibIkgSbwgu3z-9" value="ПОСТАВИТЬ ПРЕФИКС ПЕРЕД ФАЙЛОМ&amp;nbsp;" style="ellipse;whiteSpace=wrap;html=1;verticalAlign=top;" vertex="1" parent="WIyWlLk6GJQsqaUBKTNV-1">
          <mxGeometry x="430" y="120" width="120" height="60" as="geometry" />
        </mxCell>
      </root>
    </mxGraphModel>
  </diagram>
</mxfile>
